<svg xmlns="http://www.w3.org/2000/svg" xmlns:xlink="http://www.w3.org/1999/xlink" contentStyleType="text/css" data-diagram-type="DESCRIPTION" height="1249px" preserveAspectRatio="none" style="width:1139px;height:1249px;background:#FFFFFF;" version="1.1" viewBox="0 0 1139 1249" width="1139px" zoomAndPan="magnify"><?plantuml 1.2026.6?><defs/><g><!--cluster System obs?ugi wniosk?w i konsultacji BON--><g class="cluster" data-qualified-name="System obs.ugi wniosk.w i konsultacji BON" data-source-line="8" id="ent0005"><rect fill="none" height="790" rx="2.5" ry="2.5" style="stroke:#181818;stroke-width:1;" width="970.59" x="155.37" y="138.43"/><text fill="#000000" font-family="sans-serif" font-size="14" font-weight="700" lengthAdjust="spacing" textLength="316.1416" x="482.5942" y="153.9652">System obs&#322;ugi wniosk&#243;w i konsultacji BON</text></g><!--entity UC1--><g class="entity" data-qualified-name="System obs.ugi wniosk.w i konsultacji BON.UC1" data-source-line="9" id="ent0006"><ellipse cx="283.0648" cy="664.435" fill="#F1F1F1" rx="90.8248" ry="20.565" style="stroke:#181818;stroke-width:0.5;"/><text fill="#000000" font-family="sans-serif" font-size="14" lengthAdjust="spacing" textLength="155.1006" x="205.5145" y="669.1791">Logowanie do systemu</text></g><!--entity UC2--><g class="entity" data-qualified-name="System obs.ugi wniosk.w i konsultacji BON.UC2" data-source-line="11" id="ent0007"><ellipse cx="637.7629" cy="282.4306" fill="#F1F1F1" rx="85.1529" ry="19.4306" style="stroke:#181818;stroke-width:0.5;"/><text fill="#000000" font-family="sans-serif" font-size="14" lengthAdjust="spacing" textLength="142.126" x="566.6999" y="287.1747">Wype&#322;nienie wniosku</text></g><!--entity UC3--><g class="entity" data-qualified-name="System obs.ugi wniosk.w i konsultacji BON.UC3" data-source-line="12" id="ent0008"><ellipse cx="637.7614" cy="393.4283" fill="#F1F1F1" rx="86.0414" ry="19.6083" style="stroke:#181818;stroke-width:0.5;"/><text fill="#000000" font-family="sans-serif" font-size="14" lengthAdjust="spacing" textLength="144.1768" x="565.6731" y="398.1724">Dodanie za&#322;&#261;cznik&#243;w</text></g><!--entity UC4--><g class="entity" data-qualified-name="System obs.ugi wniosk.w i konsultacji BON.UC4" data-source-line="13" id="ent0009"><ellipse cx="283.0625" cy="430.4265" fill="#F1F1F1" rx="75.7325" ry="17.5465" style="stroke:#181818;stroke-width:0.5;"/><text fill="#000000" font-family="sans-serif" font-size="14" lengthAdjust="spacing" textLength="119.8477" x="223.1386" y="435.1706">Wys&#322;anie wniosku</text></g><!--entity UC5--><g class="entity" data-qualified-name="System obs.ugi wniosk.w i konsultacji BON.UC5" data-source-line="14" id="ent0010"><ellipse cx="283.0585" cy="504.4317" fill="#F1F1F1" rx="97.1585" ry="21.8317" style="stroke:#181818;stroke-width:0.5;"/><text fill="#000000" font-family="sans-serif" font-size="14" lengthAdjust="spacing" textLength="169.3125" x="198.4023" y="509.1758">Podgl&#261;d statusu wniosku</text></g><!--entity UC6--><g class="entity" data-qualified-name="System obs.ugi wniosk.w i konsultacji BON.UC6" data-source-line="16" id="ent0011"><ellipse cx="283.0585" cy="192.4317" fill="#F1F1F1" rx="83.8085" ry="19.1617" style="stroke:#181818;stroke-width:0.5;"/><text fill="#000000" font-family="sans-serif" font-size="14" lengthAdjust="spacing" textLength="139.0088" x="213.5541" y="197.1758">Zapis na konsultacj&#281;</text></g><!--entity UC7--><g class="entity" data-qualified-name="System obs.ugi wniosk.w i konsultacji BON.UC7" data-source-line="17" id="ent0012"><ellipse cx="283.0638" cy="271.4268" fill="#F1F1F1" rx="111.6838" ry="24.7368" style="stroke:#181818;stroke-width:0.5;"/><text fill="#000000" font-family="sans-serif" font-size="14" lengthAdjust="spacing" textLength="201.127" x="182.5003" y="276.1709">Zapis na wizyt&#281; w biurze BON</text></g><!--entity UC8--><g class="entity" data-qualified-name="System obs.ugi wniosk.w i konsultacji BON.UC8" data-source-line="18" id="ent0013"><ellipse cx="283.059" cy="354.4258" fill="#F1F1F1" rx="106.729" ry="23.7458" style="stroke:#181818;stroke-width:0.5;"/><text fill="#000000" font-family="sans-serif" font-size="14" lengthAdjust="spacing" textLength="190.374" x="187.872" y="359.1699">Podgl&#261;d terminu konsultacji</text></g><!--entity UC9--><g class="entity" data-qualified-name="System obs.ugi wniosk.w i konsultacji BON.UC9" data-source-line="20" id="ent0014"><ellipse cx="283.0577" cy="818.4335" fill="#F1F1F1" rx="92.1677" ry="20.8335" style="stroke:#181818;stroke-width:0.5;"/><text fill="#000000" font-family="sans-serif" font-size="14" lengthAdjust="spacing" textLength="158.1357" x="203.9898" y="823.1777">Przegl&#261;danie wniosk&#243;w</text></g><!--entity UC10--><g class="entity" data-qualified-name="System obs.ugi wniosk.w i konsultacji BON.UC10" data-source-line="21" id="ent0015"><ellipse cx="283.0642" cy="893.4348" fill="#F1F1F1" rx="83.2242" ry="19.0448" style="stroke:#181818;stroke-width:0.5;"/><text fill="#000000" font-family="sans-serif" font-size="14" lengthAdjust="spacing" textLength="137.6484" x="214.24" y="898.179">Weryfikacja wniosku</text></g><!--entity UC11--><g class="entity" data-qualified-name="System obs.ugi wniosk.w i konsultacji BON.UC11" data-source-line="22" id="ent0016"><ellipse cx="637.7643" cy="808.4329" fill="#F1F1F1" rx="122.0143" ry="26.8029" style="stroke:#181818;stroke-width:0.5;"/><text fill="#000000" font-family="sans-serif" font-size="14" lengthAdjust="spacing" textLength="223.2959" x="526.1164" y="813.177">Dodanie komentarza pracownika</text></g><!--entity UC12--><g class="entity" data-qualified-name="System obs.ugi wniosk.w i konsultacji BON.UC12" data-source-line="23" id="ent0017"><ellipse cx="637.7647" cy="891.4269" fill="#F1F1F1" rx="95.0347" ry="21.4069" style="stroke:#181818;stroke-width:0.5;"/><text fill="#000000" font-family="sans-serif" font-size="14" lengthAdjust="spacing" textLength="164.5752" x="555.4772" y="896.1711">Zmiana statusu wniosku</text></g><!--entity UC13--><g class="entity" data-qualified-name="System obs.ugi wniosk.w i konsultacji BON.UC13" data-source-line="25" id="ent0018"><ellipse cx="637.7644" cy="646.4289" fill="#F1F1F1" rx="87.9444" ry="19.9889" style="stroke:#181818;stroke-width:0.5;"/><text fill="#000000" font-family="sans-serif" font-size="14" lengthAdjust="spacing" textLength="148.5449" x="563.4919" y="651.173">Tworzenie konsultacji</text></g><!--entity UC14--><g class="entity" data-qualified-name="System obs.ugi wniosk.w i konsultacji BON.UC14" data-source-line="26" id="ent0019"><ellipse cx="637.7641" cy="724.4268" fill="#F1F1F1" rx="101.3341" ry="22.6668" style="stroke:#181818;stroke-width:0.5;"/><text fill="#000000" font-family="sans-serif" font-size="14" lengthAdjust="spacing" textLength="178.5547" x="548.4867" y="729.171">Tworzenie termin&#243;w wizyt</text></g><!--entity UC15--><g class="entity" data-qualified-name="System obs.ugi wniosk.w i konsultacji BON.UC15" data-source-line="27" id="ent0020"><ellipse cx="995.3634" cy="825.4287" fill="#F1F1F1" rx="114.5934" ry="25.3187" style="stroke:#181818;stroke-width:0.5;"/><text fill="#000000" font-family="sans-serif" font-size="14" lengthAdjust="spacing" textLength="207.4023" x="891.6622" y="830.1728">Generowanie spotkania Teams</text></g><!--entity UC16--><g class="entity" data-qualified-name="System obs.ugi wniosk.w i konsultacji BON.UC16" data-source-line="29" id="ent0021"><ellipse cx="283.0609" cy="741.4342" fill="#F1F1F1" rx="94.8209" ry="21.3642" style="stroke:#181818;stroke-width:0.5;"/><text fill="#000000" font-family="sans-serif" font-size="14" lengthAdjust="spacing" textLength="164.0967" x="201.0126" y="746.1783">Zarz&#261;dzanie s&#322;ownikami</text></g><!--entity UC17--><g class="entity" data-qualified-name="System obs.ugi wniosk.w i konsultacji BON.UC17" data-source-line="30" id="ent0022"><ellipse cx="283.0619" cy="585.4344" fill="#F1F1F1" rx="106.4719" ry="23.6944" style="stroke:#181818;stroke-width:0.5;"/><text fill="#000000" font-family="sans-serif" font-size="14" lengthAdjust="spacing" textLength="189.8135" x="188.1552" y="590.1785">Zarz&#261;dzanie u&#380;ytkownikami</text></g><!--entity Student--><g class="entity" data-qualified-name="Student" data-source-line="3" id="ent0001"><ellipse cx="57.1905" cy="283.68" fill="#F1F1F1" rx="8" ry="8" style="stroke:#181818;stroke-width:0.5;"/><path d="M57.1905,291.68 L57.1905,318.68 M44.1905,299.68 L70.1905,299.68 M57.1905,318.68 L44.1905,333.68 M57.1905,318.68 L70.1905,333.68" fill="none" style="stroke:#181818;stroke-width:0.5;"/><text fill="#000000" font-family="sans-serif" font-size="14" lengthAdjust="spacing" textLength="52.001" x="31.19" y="348.7152">Student</text></g><!--entity Worker--><g class="entity" data-qualified-name="Worker" data-source-line="4" id="ent0002"><ellipse cx="57.1875" cy="935.68" fill="#F1F1F1" rx="8" ry="8" style="stroke:#181818;stroke-width:0.5;"/><path d="M57.1875,943.68 L57.1875,970.68 M44.1875,951.68 L70.1875,951.68 M57.1875,970.68 L44.1875,985.68 M57.1875,970.68 L70.1875,985.68" fill="none" style="stroke:#181818;stroke-width:0.5;"/><text fill="#000000" font-family="sans-serif" font-size="14" lengthAdjust="spacing" textLength="102.375" x="6" y="1000.7152">Pracownik BON</text></g><!--entity Admin--><g class="entity" data-qualified-name="Admin" data-source-line="5" id="ent0003"><ellipse cx="57.1904" cy="634.68" fill="#F1F1F1" rx="8" ry="8" style="stroke:#181818;stroke-width:0.5;"/><path d="M57.1904,642.68 L57.1904,669.68 M44.1904,650.68 L70.1904,650.68 M57.1904,669.68 L44.1904,684.68 M57.1904,669.68 L70.1904,684.68" fill="none" style="stroke:#181818;stroke-width:0.5;"/><text fill="#000000" font-family="sans-serif" font-size="14" lengthAdjust="spacing" textLength="93.7207" x="10.33" y="699.7152">Administrator</text></g><!--entity Teams--><g class="entity" data-qualified-name="Teams" data-source-line="6" id="ent0004"><ellipse cx="637.7526" cy="956.68" fill="#F1F1F1" rx="8" ry="8" style="stroke:#181818;stroke-width:0.5;"/><path d="M637.7526,964.68 L637.7526,991.68 M624.7526,972.68 L650.7526,972.68 M637.7526,991.68 L624.7526,1006.68 M637.7526,991.68 L650.7526,1006.68" fill="none" style="stroke:#181818;stroke-width:0.5;"/><text fill="#000000" font-family="sans-serif" font-size="14" lengthAdjust="spacing" textLength="112.7451" x="581.38" y="1021.7152">Microsoft Teams</text></g><!--link Student to UC1--><g class="link" data-entity-1="ent0001" data-entity-2="ent0006" data-link-type="dependency" data-source-line="33" id="lnk23"><path d="M57.8,352.07 C59.32,417.77 72.16,551.41 147.37,626.43 C161.74,640.75 176.2571,648.3898 195.7771,654.0398" fill="none" id="Student-to-UC1" style="stroke:#181818;stroke-width:1;"/><polygon fill="#181818" points="200.58,655.43,193.047,649.0854,195.7771,654.0398,190.8227,656.77,200.58,655.43" style="stroke:#181818;stroke-width:1;stroke-linejoin:miter;stroke-miterlimit:10;"/></g><!--link Student to UC2--><g class="link" data-entity-1="ent0001" data-entity-2="ent0007" data-link-type="dependency" data-source-line="34" id="lnk24"><path d="M59.64,275.03 C63.88,223.95 79.8,135.36 138.37,94.43 C264.93,6 346.53,27.69 485.74,94.43 C560.11,130.08 607.3483,217.6532 626.1383,258.2132" fill="none" id="Student-to-UC2" style="stroke:#181818;stroke-width:1;"/><polygon fill="#181818" points="628.24,262.75,628.0863,252.9023,626.1383,258.2132,620.8274,256.2651,628.24,262.75" style="stroke:#181818;stroke-width:1;stroke-linejoin:miter;stroke-miterlimit:10;"/></g><!--link Student to UC3--><g class="link" data-entity-1="ent0001" data-entity-2="ent0008" data-link-type="dependency" data-source-line="35" id="lnk25"><path d="M67.82,274.87 C79.59,236.9 103.58,181 147.37,155.43 C242.32,100 290.78,119.67 394.74,155.43 C443.25,172.11 456.35,184.39 485.74,226.43 C510.63,262.02 488.87,285.31 515.74,319.43 C535.93,345.06 563.1231,361.8458 589.0131,374.1358" fill="none" id="Student-to-UC3" style="stroke:#181818;stroke-width:1;"/><polygon fill="#181818" points="593.53,376.28,587.1149,368.8069,589.0131,374.1358,583.6842,376.034,593.53,376.28" style="stroke:#181818;stroke-width:1;stroke-linejoin:miter;stroke-miterlimit:10;"/></g><!--link Student to UC4--><g class="link" data-entity-1="ent0001" data-entity-2="ent0009" data-link-type="dependency" data-source-line="36" id="lnk26"><path d="M83.53,343.16 C100.04,360.76 122.99,382.15 147.37,395.43 C169.33,407.39 190.6731,414.2973 214.1131,419.5973" fill="none" id="Student-to-UC4" style="stroke:#181818;stroke-width:1;"/><polygon fill="#181818" points="218.99,420.7,211.0938,414.8136,214.1131,419.5973,209.3294,422.6166,218.99,420.7" style="stroke:#181818;stroke-width:1;stroke-linejoin:miter;stroke-miterlimit:10;"/></g><!--link Student to UC5--><g class="link" data-entity-1="ent0001" data-entity-2="ent0010" data-link-type="dependency" data-source-line="37" id="lnk27"><path d="M71.4,352.14 C85.14,386.73 109.94,436.31 147.37,465.43 C163.23,477.76 178.0591,484.7592 197.3791,490.5292" fill="none" id="Student-to-UC5" style="stroke:#181818;stroke-width:1;"/><polygon fill="#181818" points="202.17,491.96,194.691,485.5518,197.3791,490.5292,192.4017,493.2172,202.17,491.96" style="stroke:#181818;stroke-width:1;stroke-linejoin:miter;stroke-miterlimit:10;"/></g><!--link Student to UC6--><g class="link" data-entity-1="ent0001" data-entity-2="ent0011" data-link-type="dependency" data-source-line="38" id="lnk28"><path d="M83.46,283.07 C99.95,265.08 122.9,243.18 147.37,229.43 C168.09,217.79 187.8401,210.8557 210.3001,205.2257" fill="none" id="Student-to-UC6" style="stroke:#181818;stroke-width:1;"/><polygon fill="#181818" points="215.15,204.01,205.4475,202.3183,210.3001,205.2257,207.3927,210.0783,215.15,204.01" style="stroke:#181818;stroke-width:1;stroke-linejoin:miter;stroke-miterlimit:10;"/></g><!--link Student to UC7--><g class="link" data-entity-1="ent0001" data-entity-2="ent0012" data-link-type="dependency" data-source-line="39" id="lnk29"><path d="M83.43,308.69 C110.88,303.54 151.3258,295.9523 191.7658,288.3623" fill="none" id="Student-to-UC7" style="stroke:#181818;stroke-width:1;"/><polygon fill="#181818" points="196.68,287.44,187.0966,285.1688,191.7658,288.3623,188.5723,293.0315,196.68,287.44" style="stroke:#181818;stroke-width:1;stroke-linejoin:miter;stroke-miterlimit:10;"/></g><!--link Student to UC8--><g class="link" data-entity-1="ent0001" data-entity-2="ent0013" data-link-type="dependency" data-source-line="40" id="lnk30"><path d="M83.43,318.05 C111.51,323.19 153.4017,330.8698 194.5417,338.3998" fill="none" id="Student-to-UC8" style="stroke:#181818;stroke-width:1;"/><polygon fill="#181818" points="199.46,339.3,191.3272,333.745,194.5417,338.3998,189.8869,341.6143,199.46,339.3" style="stroke:#181818;stroke-width:1;stroke-linejoin:miter;stroke-miterlimit:10;"/></g><!--link Worker to UC1--><g class="link" data-entity-1="ent0002" data-entity-2="ent0006" data-link-type="dependency" data-source-line="42" id="lnk31"><path d="M60.33,926.88 C65.61,869.69 83.91,762.68 147.37,702.43 C162.18,688.38 176.9547,680.8417 196.6047,675.1917" fill="none" id="Worker-to-UC1" style="stroke:#181818;stroke-width:1;"/><polygon fill="#181818" points="201.41,673.81,191.6551,672.4528,196.6047,675.1917,193.8658,680.1413,201.41,673.81" style="stroke:#181818;stroke-width:1;stroke-linejoin:miter;stroke-miterlimit:10;"/></g><!--link Worker to UC9--><g class="link" data-entity-1="ent0002" data-entity-2="ent0014" data-link-type="dependency" data-source-line="43" id="lnk32"><path d="M81.15,926.73 C96.99,903.19 120.07,874.32 147.37,856.43 C165.36,844.64 182.1883,837.7935 202.8083,832.1335" fill="none" id="Worker-to-UC9" style="stroke:#181818;stroke-width:1;"/><polygon fill="#181818" points="207.63,830.81,197.8922,829.335,202.8083,832.1335,200.0098,837.0496,207.63,830.81" style="stroke:#181818;stroke-width:1;stroke-linejoin:miter;stroke-miterlimit:10;"/></g><!--link Worker to UC10--><g class="link" data-entity-1="ent0002" data-entity-2="ent0015" data-link-type="dependency" data-source-line="44" id="lnk33"><path d="M108.65,949.03 C118.51,945.84 128.76,942.52 138.37,939.43 C169.91,929.27 200.6077,919.4434 228.3977,910.5534" fill="none" id="Worker-to-UC10" style="stroke:#181818;stroke-width:1;"/><polygon fill="#181818" points="233.16,909.03,223.3692,907.9624,228.3977,910.5534,225.8067,915.582,233.16,909.03" style="stroke:#181818;stroke-width:1;stroke-linejoin:miter;stroke-miterlimit:10;"/></g><!--link Worker to UC11--><g class="link" data-entity-1="ent0002" data-entity-2="ent0016" data-link-type="dependency" data-source-line="45" id="lnk34"><path d="M78.67,1004 C92.4,1025.5 112.68,1050.33 138.37,1062.43 C278.06,1128.19 369.11,1163.58 485.74,1062.43 C556.97,1000.65 456.31,925.62 515.74,852.43 C524.62,841.49 531.9573,835.4539 544.7573,829.2739" fill="none" id="Worker-to-UC11" style="stroke:#181818;stroke-width:1;"/><polygon fill="#181818" points="549.26,827.1,539.4161,827.411,544.7573,829.2739,542.8944,834.6152,549.26,827.1" style="stroke:#181818;stroke-width:1;stroke-linejoin:miter;stroke-miterlimit:10;"/></g><!--link Worker to UC12--><g class="link" data-entity-1="ent0002" data-entity-2="ent0017" data-link-type="dependency" data-source-line="46" id="lnk35"><path d="M64.44,1003.97 C73.24,1044.16 93.55,1105.15 138.37,1133.43 C268.95,1215.79 368.87,1234.3 485.74,1133.43 C554.79,1073.84 456.79,1000.01 515.74,930.43 C526.59,917.63 536.9671,910.7154 552.7971,904.8954" fill="none" id="Worker-to-UC12" style="stroke:#181818;stroke-width:1;"/><polygon fill="#181818" points="557.49,903.17,547.6625,902.5214,552.7971,904.8954,550.4231,910.03,557.49,903.17" style="stroke:#181818;stroke-width:1;stroke-linejoin:miter;stroke-miterlimit:10;"/></g><!--link Worker to UC13--><g class="link" data-entity-1="ent0002" data-entity-2="ent0018" data-link-type="dependency" data-source-line="47" id="lnk36"><path d="M108.76,976.22 C200.59,992.49 393.77,1010.7 485.74,900.43 C547.82,826 453.14,758.42 515.74,684.43 C527.26,670.81 538.8688,663.5978 555.8288,657.9178" fill="none" id="Worker-to-UC13" style="stroke:#181818;stroke-width:1;"/><polygon fill="#181818" points="560.57,656.33,550.7656,655.3952,555.8288,657.9178,553.3062,662.9811,560.57,656.33" style="stroke:#181818;stroke-width:1;stroke-linejoin:miter;stroke-miterlimit:10;"/></g><!--link Worker to UC14--><g class="link" data-entity-1="ent0002" data-entity-2="ent0019" data-link-type="dependency" data-source-line="48" id="lnk37"><path d="M108.65,988.73 C196.89,1025.6 379.91,1084.2 485.74,991.43 C562.27,924.35 450.85,842.82 515.74,764.43 C525.9,752.16 535.2733,745.4662 550.1733,739.5462" fill="none" id="Worker-to-UC14" style="stroke:#181818;stroke-width:1;"/><polygon fill="#181818" points="554.82,737.7,544.979,737.3058,550.1733,739.5462,547.9329,744.7405,554.82,737.7" style="stroke:#181818;stroke-width:1;stroke-linejoin:miter;stroke-miterlimit:10;"/></g><!--link Admin to UC1--><g class="link" data-entity-1="ent0003" data-entity-2="ent0006" data-link-type="dependency" data-source-line="50" id="lnk38"><path d="M104.3,664.43 C129.65,664.43 156.97,664.43 187.09,664.43" fill="none" id="Admin-to-UC1" style="stroke:#181818;stroke-width:1;"/><polygon fill="#181818" points="192.09,664.43,183.09,660.43,187.09,664.43,183.09,668.43,192.09,664.43" style="stroke:#181818;stroke-width:1;stroke-linejoin:miter;stroke-miterlimit:10;"/></g><!--link Admin to UC16--><g class="link" data-entity-1="ent0003" data-entity-2="ent0021" data-link-type="dependency" data-source-line="51" id="lnk39"><path d="M104.52,685.42 C118.19,691.27 133.26,697.4 147.37,702.43 C170.76,710.76 192.0873,717.2944 215.0573,723.7644" fill="none" id="Admin-to-UC16" style="stroke:#181818;stroke-width:1;"/><polygon fill="#181818" points="219.87,725.12,212.2916,718.8297,215.0573,723.7644,210.1226,726.5301,219.87,725.12" style="stroke:#181818;stroke-width:1;stroke-linejoin:miter;stroke-miterlimit:10;"/></g><!--link Admin to UC17--><g class="link" data-entity-1="ent0003" data-entity-2="ent0022" data-link-type="dependency" data-source-line="52" id="lnk40"><path d="M104.1,643.75 C117.89,637.84 133.14,631.61 147.37,626.43 C169.31,618.44 188.831,612.1471 210.691,605.5871" fill="none" id="Admin-to-UC17" style="stroke:#181818;stroke-width:1;"/><polygon fill="#181818" points="215.48,604.15,205.7101,602.9056,210.691,605.5871,208.0095,610.5681,215.48,604.15" style="stroke:#181818;stroke-width:1;stroke-linejoin:miter;stroke-miterlimit:10;"/></g><!--link Teams to UC15--><g class="link" data-entity-1="ent0004" data-entity-2="ent0020" data-link-type="dependency" data-source-line="54" id="lnk41"><path d="M694.32,961.27 C762.59,930.36 872.9151,880.4123 938.9551,850.5123" fill="none" id="Teams-to-UC15" style="stroke:#181818;stroke-width:1;"/><polygon fill="#181818" points="943.51,848.45,933.6614,848.5181,938.9551,850.5123,936.961,855.806,943.51,848.45" style="stroke:#181818;stroke-width:1;stroke-linejoin:miter;stroke-miterlimit:10;"/></g><!--link UC4 to UC2--><g class="link" data-entity-1="ent0009" data-entity-2="ent0007" data-link-type="dependency" data-source-line="56" id="lnk42"><path d="M332.2,416.7 C351.81,410.73 374.56,403.29 394.74,395.43 C470.35,365.97 551.2235,326.2471 597.6535,302.6271" fill="none" id="UC4-to-UC2" style="stroke:#181818;stroke-width:1;stroke-dasharray:7,7;"/><polygon fill="#181818" points="602.11,300.36,592.2746,300.8756,597.6535,302.6271,595.902,308.006,602.11,300.36" style="stroke:#181818;stroke-width:1;stroke-linejoin:miter;stroke-miterlimit:10;"/><text fill="#000000" font-family="sans-serif" font-size="13" lengthAdjust="spacing" textLength="59.3569" x="425.74" y="354.6484">&#171;include&#187;</text></g><!--link UC4 to UC3--><g class="link" data-entity-1="ent0009" data-entity-2="ent0008" data-link-type="dependency" data-source-line="57" id="lnk43"><path d="M352.9,423.21 C412.04,417 492.2873,408.5813 553.9073,402.1213" fill="none" id="UC4-to-UC3" style="stroke:#181818;stroke-width:1;stroke-dasharray:7,7;"/><polygon fill="#181818" points="558.88,401.6,549.512,398.5602,553.9073,402.1213,550.3461,406.5166,558.88,401.6" style="stroke:#181818;stroke-width:1;stroke-linejoin:miter;stroke-miterlimit:10;"/><text fill="#000000" font-family="sans-serif" font-size="13" lengthAdjust="spacing" textLength="59.3569" x="425.74" y="406.2784">&#171;include&#187;</text></g><!--link UC10 to UC11--><g class="link" data-entity-1="ent0015" data-entity-2="ent0016" data-link-type="dependency" data-source-line="58" id="lnk44"><path d="M341.51,879.58 C399.29,865.66 484.0791,845.2213 549.4391,829.4713" fill="none" id="UC10-to-UC11" style="stroke:#181818;stroke-width:1;stroke-dasharray:7,7;"/><polygon fill="#181818" points="554.3,828.3,544.6134,826.5197,549.4391,829.4713,546.4875,834.2971,554.3,828.3" style="stroke:#181818;stroke-width:1;stroke-linejoin:miter;stroke-miterlimit:10;"/><text fill="#000000" font-family="sans-serif" font-size="13" lengthAdjust="spacing" textLength="57.1924" x="426.74" y="842.4084">&#171;extend&#187;</text></g><!--link UC10 to UC12--><g class="link" data-entity-1="ent0015" data-entity-2="ent0017" data-link-type="dependency" data-source-line="59" id="lnk45"><path d="M366.75,892.96 C419.38,892.66 482.7001,892.2983 537.4401,891.9883" fill="none" id="UC10-to-UC12" style="stroke:#181818;stroke-width:1;stroke-dasharray:7,7;"/><polygon fill="#181818" points="542.44,891.96,533.4175,888.011,537.4401,891.9883,533.4628,896.0109,542.44,891.96" style="stroke:#181818;stroke-width:1;stroke-linejoin:miter;stroke-miterlimit:10;"/><text fill="#000000" font-family="sans-serif" font-size="13" lengthAdjust="spacing" textLength="59.3569" x="425.74" y="888.8784">&#171;include&#187;</text></g><!--link UC13 to UC15--><g class="link" data-entity-1="ent0018" data-entity-2="ent0020" data-link-type="dependency" data-source-line="61" id="lnk46"><path d="M696.74,661.59 C717.06,667.7 739.79,675.44 759.77,684.43 C834.53,718.06 910.926,767.5529 955.506,798.1129" fill="none" id="UC13-to-UC15" style="stroke:#181818;stroke-width:1;stroke-dasharray:7,7;"/><polygon fill="#181818" points="959.63,800.94,954.4684,792.552,955.506,798.1129,949.9451,799.1505,959.63,800.94" style="stroke:#181818;stroke-width:1;stroke-linejoin:miter;stroke-miterlimit:10;"/><text fill="#000000" font-family="sans-serif" font-size="13" lengthAdjust="spacing" textLength="59.3569" x="790.77" y="697.0684">&#171;include&#187;</text></g><!--link UC6 to UC13--><g class="link" data-entity-1="ent0011" data-entity-2="ent0018" data-link-type="dependency" data-source-line="62" id="lnk47"><path d="M343.6,205.99 C360.97,211.58 379.39,219.21 394.74,229.43 C445.87,263.46 455.79,279.81 485.74,333.43 C507.75,372.82 497.95,388.96 515.74,430.43 C548.12,505.88 596.845,584.7749 620.865,622.1149" fill="none" id="UC6-to-UC13" style="stroke:#181818;stroke-width:1;stroke-dasharray:7,7;"/><polygon fill="#181818" points="623.57,626.32,622.065,616.5868,620.865,622.1149,615.3369,620.9149,623.57,626.32" style="stroke:#181818;stroke-width:1;stroke-linejoin:miter;stroke-miterlimit:10;"/><text fill="#000000" font-family="sans-serif" font-size="13" lengthAdjust="spacing" textLength="42.1865" x="434.24" y="248.1984">&#171;uses&#187;</text></g><!--link UC7 to UC14--><g class="link" data-entity-1="ent0012" data-entity-2="ent0019" data-link-type="dependency" data-source-line="63" id="lnk48"><path d="M361.12,289.38 C373.75,295.27 385.66,303.08 394.74,313.43 C432.99,357.03 407.87,384.94 424.74,440.43 C458.29,550.77 432.92,603.18 515.74,683.43 C527.93,695.24 538.956,701.9008 554.996,707.8908" fill="none" id="UC7-to-UC14" style="stroke:#181818;stroke-width:1;stroke-dasharray:7,7;"/><polygon fill="#181818" points="559.68,709.64,552.6481,702.7442,554.996,707.8908,549.8494,710.2386,559.68,709.64" style="stroke:#181818;stroke-width:1;stroke-linejoin:miter;stroke-miterlimit:10;"/><text fill="#000000" font-family="sans-serif" font-size="13" lengthAdjust="spacing" textLength="42.1865" x="434.24" y="436.9984">&#171;uses&#187;</text></g><?plantuml-src TLJBRjim4BppAnQv9x0iMsgAm42Q0htqOQ090lJ6I8pAoY8Dae9g5RqOo4VaEthDhVP_TKs9ZaYhDmvdk3lxa5RiqO2He7ZntK3E5SiCbu8GcXcfuEohgNCcp1bG3VtPKKj5Cza8NiAxBv-ju5wgaYd7N-SL5rmRHH5Qtjuu-XFFbDGIqzyoMcahi2T23YQeA5OCys-qOHN81xtVrWK7p2Tr-VTF0nnAANIzCZJxmJiBlmX0hLb6DRxyA0lPKC4Pv1Aq3LFR97St4HaAxpThjj-YyA3juZlXTAXxBtCRhgNxxUufQx5ozD4hOpyYkgMduMP3qLBcnMhtb8CsrDIw3hHpp-CtkkOQ11tKl7lkbSceiE7jnkoUeO47NgkM7OTqTvEEsZ1CuNJgOLTx_HlFoXA3sHU30b_xSEdrWQdD8oyn50sgYoPZdIrbXVj5LKjXxPQBkXUHLsR5AHOvthfewXc-RIHQxkA7fKNnkB9hnc7DR1-TsXlW1oQOwbTChwKfyKG7oupwS8YgnRwrtOlzjgklEdf9_YkkzoyRKuRwbFmcfFyeuVnyOJVRnzC0nm6U1NWUu2J0QO1nDRgF_fZVWvS1Embm8CV1-JWEy8mG-myvPlDGuiEK43iCXt4OM31SNDZ6m5kukk8YMs4vYyM0YK-OQD9JKMGvzjCmaGTK6F10newSdyHC7DMbmx5hUv-w-zdm_Xy0?></g></svg>